<?xml version="1.0" encoding="UTF-8"?>
<!-- METADATA: {"generator": "asset_generator.py", "seed": 43, "category": "background", "style": "starburst", "palette": ["#1C4FA1", "#F6BE00"], "generator_params": {"motif_type": "starburst", "width": 1920, "height": 1080}, "notes": "Atomic starburst background"} -->

<svg xmlns="http://www.w3.org/2000/svg" viewBox="0 0 2048 1208">
  <desc>Atomic starburst pattern with 12 spokes, mid-century geometric design</desc>
  <line x1="972.0" y1="539.8" x2="1006.6" y2="537.8" stroke="#1C4FA1" stroke-width="2" stroke-linecap="round"/>
  <circle cx="1006.6" cy="537.8" r="3" fill="#F6BE00"/>
  <line x1="970.4" y1="546.0" x2="1002.9" y2="565.1" stroke="#1C4FA1" stroke-width="2" stroke-linecap="round"/>
  <circle cx="1002.9" cy="565.1" r="3" fill="#F6BE00"/>
  <line x1="966.1" y1="550.3" x2="985.8" y2="582.8" stroke="#1C4FA1" stroke-width="2" stroke-linecap="round"/>
  <circle cx="985.8" cy="582.8" r="3" fill="#F6BE00"/>
  <line x1="959.8" y1="552.0" x2="958.4" y2="587.1" stroke="#1C4FA1" stroke-width="2" stroke-linecap="round"/>
  <circle cx="958.4" cy="587.1" r="3" fill="#F6BE00"/>
  <line x1="954.1" y1="550.4" x2="937.0" y2="582.5" stroke="#1C4FA1" stroke-width="2" stroke-linecap="round"/>
  <circle cx="937.0" cy="582.5" r="3" fill="#F6BE00"/>
  <line x1="949.6" y1="546.0" x2="919.4" y2="565.0" stroke="#1C4FA1" stroke-width="2" stroke-linecap="round"/>
  <circle cx="919.4" cy="565.0" r="3" fill="#F6BE00"/>
  <line x1="948.0" y1="540.2" x2="912.2" y2="540.9" stroke="#1C4FA1" stroke-width="2" stroke-linecap="round"/>
  <circle cx="912.2" cy="540.9" r="3" fill="#F6BE00"/>
  <line x1="949.6" y1="534.0" x2="919.0" y2="516.6" stroke="#1C4FA1" stroke-width="2" stroke-linecap="round"/>
  <circle cx="919.0" cy="516.6" r="3" fill="#F6BE00"/>
  <line x1="953.9" y1="529.7" x2="936.1" y2="499.1" stroke="#1C4FA1" stroke-width="2" stroke-linecap="round"/>
  <circle cx="936.1" cy="499.1" r="3" fill="#F6BE00"/>
  <line x1="960.2" y1="528.0" x2="960.9" y2="492.1" stroke="#1C4FA1" stroke-width="2" stroke-linecap="round"/>
  <circle cx="960.9" cy="492.1" r="3" fill="#F6BE00"/>
  <line x1="966.0" y1="529.6" x2="985.5" y2="499.9" stroke="#1C4FA1" stroke-width="2" stroke-linecap="round"/>
  <circle cx="985.5" cy="499.9" r="3" fill="#F6BE00"/>
  <line x1="970.5" y1="534.2" x2="1002.4" y2="517.1" stroke="#1C4FA1" stroke-width="2" stroke-linecap="round"/>
  <circle cx="1002.4" cy="517.1" r="3" fill="#F6BE00"/>
  <circle cx="960" cy="540" r="6" fill="#F6BE00"/>
</svg>