<?xml version="1.0" encoding="UTF-8"?>
<svg width="200" height="200" viewBox="0 0 200 200" xmlns="http://www.w3.org/2000/svg">
  <!-- Clock face -->
  <circle cx="100" cy="100" r="60" fill="#F8F1E5"/>
  <circle cx="100" cy="100" r="55" fill="#FFFFFF"/>
  
  <!-- Sunburst rays -->
  <g fill="#F28C28">
    <polygon points="100,20 110,30 120,20 110,10"/>
    <polygon points="180,100 170,110 180,120 190,110"/>
    <polygon points="100,180 90,170 80,180 90,190"/>
    <polygon points="20,100 30,90 20,80 10,90"/>
    
    <polygon points="140,40 150,50 160,40 150,30"/>
    <polygon points="160,140 170,150 180,140 170,130"/>
    <polygon points="60,160 50,170 40,160 50,150"/>
    <polygon points="40,60 50,50 60,40 50,30"/>
  </g>
  
  <!-- Clock hands -->
  <line x1="100" y1="100" x2="100" y2="40" stroke="#1A1A1A" stroke-width="3" stroke-linecap="round"/>
  <line x1="100" y1="100" x2="130" y2="100" stroke="#1A1A1A" stroke-width="2" stroke-linecap="round"/>
  
  <!-- Center dot -->
  <circle cx="100" cy="100" r="4" fill="#1A1A1A"/>
  
  <desc>Nelson sunburst clock - iconic midcentury modern clock design with radiating rays</desc>
</svg>
