<?xml version="1.0" encoding="UTF-8"?>
<svg width="200" height="200" viewBox="0 0 200 200" xmlns="http://www.w3.org/2000/svg">
  <!-- Notebook cover -->
  <rect x="60" y="80" width="80" height="100" rx="5" fill="#F8F1E5"/>
  <rect x="65" y="85" width="70" height="90" rx="3" fill="#FFFFFF"/>
  
  <!-- Spiral binding -->
  <g stroke="#1A1A1A" stroke-width="2">
    <path d="M60,90 Q65,85 70,90" fill="none"/>
    <path d="M60,100 Q65,95 70,100" fill="none"/>
    <path d="M60,110 Q65,105 70,110" fill="none"/>
    <path d="M60,120 Q65,115 70,120" fill="none"/>
    <path d="M60,130 Q65,125 70,130" fill="none"/>
    <path d="M60,140 Q65,135 70,140" fill="none"/>
    <path d="M60,150 Q65,145 70,150" fill="none"/>
    <path d="M60,160 Q65,155 70,160" fill="none"/>
  </g>
  
  <!-- Lines on paper -->
  <g stroke="#8B5E3C" stroke-width="1" opacity="0.3">
    <line x1="80" y1="100" x2="120" y2="100"/>
    <line x1="80" y1="110" x2="120" y2="110"/>
    <line x1="80" y1="120" x2="120" y2="120"/>
    <line x1="80" y1="130" x2="120" y2="130"/>
    <line x1="80" y1="140" x2="120" y2="140"/>
    <line x1="80" y1="150" x2="120" y2="150"/>
  </g>
  
  <desc>Notebook - classic spiral-bound notebook with lined paper</desc>
</svg>
